STARTFONT 2.1
COMMENT
COMMENT Converted from OpenType font "slkscr.ttf" by "otf2bdf 3.0".
COMMENT
FONT -FreeType-Silkscreen-Medium-R-Normal--24-240-72-72-P-115-ISO10646-1
SIZE 24 72 72
FONTBOUNDINGBOX 27 30 0 -6
STARTPROPERTIES 19
FOUNDRY "FreeType"
FAMILY_NAME "Silkscreen"
WEIGHT_NAME "Medium"
SLANT "R"
SETWIDTH_NAME "Normal"
ADD_STYLE_NAME ""
PIXEL_SIZE 24
POINT_SIZE 240
RESOLUTION_X 72
RESOLUTION_Y 72
SPACING "P"
AVERAGE_WIDTH 115
CHARSET_REGISTRY "ISO10646"
CHARSET_ENCODING "1"
FONT_ASCENT 24
FONT_DESCENT 6
COPYRIGHT "Copyright (c) Jason Kottke, 2001. All rights reserved."
_OTF_FONTFILE "slkscr.ttf"
_OTF_PSNAME "Silkscreen"
ENDPROPERTIES
CHARS 218
STARTCHAR 0020
ENCODING 32
SWIDTH 500 0
DWIDTH 12 0
BBX 0 0 0 0
BITMAP
ENDCHAR
STARTCHAR 0021
ENCODING 33
SWIDTH 375 0
DWIDTH 9 0
BBX 3 15 3 0
BITMAP
E0
E0
E0
E0
E0
E0
E0
E0
E0
00
00
00
E0
E0
E0
ENDCHAR
STARTCHAR 0022
ENCODING 34
SWIDTH 625 0
DWIDTH 15 0
BBX 9 6 3 9
BITMAP
E380
E380
E380
E380
E380
E380
ENDCHAR
STARTCHAR 0023
ENCODING 35
SWIDTH 875 0
DWIDTH 21 0
BBX 15 15 3 0
BITMAP
1C70
1C70
1C70
FFFE
FFFE
FFFE
1C70
1C70
1C70
FFFE
FFFE
FFFE
1C70
1C70
1C70
ENDCHAR
STARTCHAR 0024
ENCODING 36
SWIDTH 750 0
DWIDTH 18 0
BBX 12 21 3 -3
BITMAP
0380
0380
0380
1FF0
1FF0
1FF0
E000
E000
E000
1F80
1F80
1F80
0070
0070
0070
FF80
FF80
FF80
1C00
1C00
1C00
ENDCHAR
STARTCHAR 0025
ENCODING 37
SWIDTH 875 0
DWIDTH 21 0
BBX 15 15 3 0
BITMAP
FC70
FC70
FC70
FC70
FC70
FC70
0380
0380
0380
1C7E
1C7E
1C7E
1C7E
1C7E
1C7E
ENDCHAR
STARTCHAR 0026
ENCODING 38
SWIDTH 750 0
DWIDTH 18 0
BBX 12 21 3 -3
BITMAP
0380
0380
0380
1FF0
1FF0
1FF0
E000
E000
E000
1F80
1F80
1F80
E000
E000
E000
1FF0
1FF0
1FF0
0380
0380
0380
ENDCHAR
STARTCHAR 0027
ENCODING 39
SWIDTH 375 0
DWIDTH 9 0
BBX 3 6 3 9
BITMAP
E0
E0
E0
E0
E0
E0
ENDCHAR
STARTCHAR 0028
ENCODING 40
SWIDTH 500 0
DWIDTH 12 0
BBX 6 15 3 0
BITMAP
1C
1C
1C
E0
E0
E0
E0
E0
E0
E0
E0
E0
1C
1C
1C
ENDCHAR
STARTCHAR 0029
ENCODING 41
SWIDTH 500 0
DWIDTH 12 0
BBX 6 15 3 0
BITMAP
E0
E0
E0
1C
1C
1C
1C
1C
1C
1C
1C
1C
E0
E0
E0
ENDCHAR
STARTCHAR 002A
ENCODING 42
SWIDTH 875 0
DWIDTH 21 0
BBX 15 15 3 0
BITMAP
0380
0380
0380
E38E
E38E
E38E
1FF0
1FF0
1FF0
E38E
E38E
E38E
0380
0380
0380
ENDCHAR
STARTCHAR 002B
ENCODING 43
SWIDTH 875 0
DWIDTH 21 0
BBX 15 15 3 0
BITMAP
0380
0380
0380
0380
0380
0380
FFFE
FFFE
FFFE
0380
0380
0380
0380
0380
0380
ENDCHAR
STARTCHAR 002C
ENCODING 44
SWIDTH 500 0
DWIDTH 12 0
BBX 6 6 3 -3
BITMAP
1C
1C
1C
E0
E0
E0
ENDCHAR
STARTCHAR 002D
ENCODING 45
SWIDTH 625 0
DWIDTH 15 0
BBX 9 3 3 6
BITMAP
FF80
FF80
FF80
ENDCHAR
STARTCHAR 002E
ENCODING 46
SWIDTH 375 0
DWIDTH 9 0
BBX 3 3 3 0
BITMAP
E0
E0
E0
ENDCHAR
STARTCHAR 002F
ENCODING 47
SWIDTH 625 0
DWIDTH 15 0
BBX 9 15 3 0
BITMAP
0380
0380
0380
0380
0380
0380
1C00
1C00
1C00
E000
E000
E000
E000
E000
E000
ENDCHAR
STARTCHAR 0030
ENCODING 48
SWIDTH 750 0
DWIDTH 18 0
BBX 12 15 3 0
BITMAP
1F80
1F80
1F80
E070
E070
E070
E070
E070
E070
E070
E070
E070
1F80
1F80
1F80
ENDCHAR
STARTCHAR 0031
ENCODING 49
SWIDTH 625 0
DWIDTH 15 0
BBX 9 15 3 0
BITMAP
FC00
FC00
FC00
1C00
1C00
1C00
1C00
1C00
1C00
1C00
1C00
1C00
FF80
FF80
FF80
ENDCHAR
STARTCHAR 0032
ENCODING 50
SWIDTH 750 0
DWIDTH 18 0
BBX 12 15 3 0
BITMAP
FF80
FF80
FF80
0070
0070
0070
1F80
1F80
1F80
E000
E000
E000
FFF0
FFF0
FFF0
ENDCHAR
STARTCHAR 0033
ENCODING 51
SWIDTH 750 0
DWIDTH 18 0
BBX 12 15 3 0
BITMAP
FF80
FF80
FF80
0070
0070
0070
1F80
1F80
1F80
0070
0070
0070
FF80
FF80
FF80
ENDCHAR
STARTCHAR 0034
ENCODING 52
SWIDTH 750 0
DWIDTH 18 0
BBX 12 15 3 0
BITMAP
E380
E380
E380
E380
E380
E380
FFF0
FFF0
FFF0
0380
0380
0380
0380
0380
0380
ENDCHAR
STARTCHAR 0035
ENCODING 53
SWIDTH 750 0
DWIDTH 18 0
BBX 12 15 3 0
BITMAP
FFF0
FFF0
FFF0
E000
E000
E000
FF80
FF80
FF80
0070
0070
0070
FF80
FF80
FF80
ENDCHAR
STARTCHAR 0036
ENCODING 54
SWIDTH 750 0
DWIDTH 18 0
BBX 12 15 3 0
BITMAP
1F80
1F80
1F80
E000
E000
E000
FF80
FF80
FF80
E070
E070
E070
1F80
1F80
1F80
ENDCHAR
STARTCHAR 0037
ENCODING 55
SWIDTH 750 0
DWIDTH 18 0
BBX 12 15 3 0
BITMAP
FFF0
FFF0
FFF0
0070
0070
0070
0380
0380
0380
1C00
1C00
1C00
1C00
1C00
1C00
ENDCHAR
STARTCHAR 0038
ENCODING 56
SWIDTH 750 0
DWIDTH 18 0
BBX 12 15 3 0
BITMAP
1F80
1F80
1F80
E070
E070
E070
1F80
1F80
1F80
E070
E070
E070
1F80
1F80
1F80
ENDCHAR
STARTCHAR 0039
ENCODING 57
SWIDTH 750 0
DWIDTH 18 0
BBX 12 15 3 0
BITMAP
1F80
1F80
1F80
E070
E070
E070
1FF0
1FF0
1FF0
0070
0070
0070
1F80
1F80
1F80
ENDCHAR
STARTCHAR 003A
ENCODING 58
SWIDTH 375 0
DWIDTH 9 0
BBX 3 9 3 3
BITMAP
E0
E0
E0
00
00
00
E0
E0
E0
ENDCHAR
STARTCHAR 003B
ENCODING 59
SWIDTH 500 0
DWIDTH 12 0
BBX 6 12 3 0
BITMAP
1C
1C
1C
00
00
00
1C
1C
1C
E0
E0
E0
ENDCHAR
STARTCHAR 003C
ENCODING 60
SWIDTH 625 0
DWIDTH 15 0
BBX 9 15 3 0
BITMAP
0380
0380
0380
1C00
1C00
1C00
E000
E000
E000
1C00
1C00
1C00
0380
0380
0380
ENDCHAR
STARTCHAR 003D
ENCODING 61
SWIDTH 625 0
DWIDTH 15 0
BBX 9 9 3 3
BITMAP
FF80
FF80
FF80
0000
0000
0000
FF80
FF80
FF80
ENDCHAR
STARTCHAR 003E
ENCODING 62
SWIDTH 625 0
DWIDTH 15 0
BBX 9 15 3 0
BITMAP
E000
E000
E000
1C00
1C00
1C00
0380
0380
0380
1C00
1C00
1C00
E000
E000
E000
ENDCHAR
STARTCHAR 003F
ENCODING 63
SWIDTH 750 0
DWIDTH 18 0
BBX 12 15 3 0
BITMAP
FF80
FF80
FF80
0070
0070
0070
1F80
1F80
1F80
0000
0000
0000
1C00
1C00
1C00
ENDCHAR
STARTCHAR 0040
ENCODING 64
SWIDTH 875 0
DWIDTH 21 0
BBX 15 15 3 0
BITMAP
1FF0
1FF0
1FF0
E38E
E38E
E38E
E3F0
E3F0
E3F0
E000
E000
E000
1FF0
1FF0
1FF0
ENDCHAR
STARTCHAR 0041
ENCODING 65
SWIDTH 750 0
DWIDTH 18 0
BBX 12 15 3 0
BITMAP
1F80
1F80
1F80
E070
E070
E070
FFF0
FFF0
FFF0
E070
E070
E070
E070
E070
E070
ENDCHAR
STARTCHAR 0042
ENCODING 66
SWIDTH 750 0
DWIDTH 18 0
BBX 12 15 3 0
BITMAP
FF80
FF80
FF80
E070
E070
E070
FFF0
FFF0
FFF0
E070
E070
E070
FF80
FF80
FF80
ENDCHAR
STARTCHAR 0043
ENCODING 67
SWIDTH 750 0
DWIDTH 18 0
BBX 12 15 3 0
BITMAP
1F80
1F80
1F80
E070
E070
E070
E000
E000
E000
E070
E070
E070
1F80
1F80
1F80
ENDCHAR
STARTCHAR 0044
ENCODING 68
SWIDTH 750 0
DWIDTH 18 0
BBX 12 15 3 0
BITMAP
FF80
FF80
FF80
E070
E070
E070
E070
E070
E070
E070
E070
E070
FF80
FF80
FF80
ENDCHAR
STARTCHAR 0045
ENCODING 69
SWIDTH 625 0
DWIDTH 15 0
BBX 9 15 3 0
BITMAP
FF80
FF80
FF80
E000
E000
E000
FF80
FF80
FF80
E000
E000
E000
FF80
FF80
FF80
ENDCHAR
STARTCHAR 0046
ENCODING 70
SWIDTH 625 0
DWIDTH 15 0
BBX 9 15 3 0
BITMAP
FF80
FF80
FF80
E000
E000
E000
FF80
FF80
FF80
E000
E000
E000
E000
E000
E000
ENDCHAR
STARTCHAR 0047
ENCODING 71
SWIDTH 750 0
DWIDTH 18 0
BBX 12 15 3 0
BITMAP
1FF0
1FF0
1FF0
E000
E000
E000
E3F0
E3F0
E3F0
E070
E070
E070
1F80
1F80
1F80
ENDCHAR
STARTCHAR 0048
ENCODING 72
SWIDTH 750 0
DWIDTH 18 0
BBX 12 15 3 0
BITMAP
E070
E070
E070
E070
E070
E070
FFF0
FFF0
FFF0
E070
E070
E070
E070
E070
E070
ENDCHAR
STARTCHAR 0049
ENCODING 73
SWIDTH 375 0
DWIDTH 9 0
BBX 3 15 3 0
BITMAP
E0
E0
E0
E0
E0
E0
E0
E0
E0
E0
E0
E0
E0
E0
E0
ENDCHAR
STARTCHAR 004A
ENCODING 74
SWIDTH 750 0
DWIDTH 18 0
BBX 12 15 3 0
BITMAP
0070
0070
0070
0070
0070
0070
0070
0070
0070
E070
E070
E070
1F80
1F80
1F80
ENDCHAR
STARTCHAR 004B
ENCODING 75
SWIDTH 750 0
DWIDTH 18 0
BBX 12 15 3 0
BITMAP
E070
E070
E070
E380
E380
E380
FC00
FC00
FC00
E380
E380
E380
E070
E070
E070
ENDCHAR
STARTCHAR 004C
ENCODING 76
SWIDTH 625 0
DWIDTH 15 0
BBX 9 15 3 0
BITMAP
E000
E000
E000
E000
E000
E000
E000
E000
E000
E000
E000
E000
FF80
FF80
FF80
ENDCHAR
STARTCHAR 004D
ENCODING 77
SWIDTH 875 0
DWIDTH 21 0
BBX 15 15 3 0
BITMAP
E00E
E00E
E00E
FC7E
FC7E
FC7E
E38E
E38E
E38E
E00E
E00E
E00E
E00E
E00E
E00E
ENDCHAR
STARTCHAR 004E
ENCODING 78
SWIDTH 875 0
DWIDTH 21 0
BBX 15 15 3 0
BITMAP
E00E
E00E
E00E
FC0E
FC0E
FC0E
E38E
E38E
E38E
E07E
E07E
E07E
E00E
E00E
E00E
ENDCHAR
STARTCHAR 004F
ENCODING 79
SWIDTH 750 0
DWIDTH 18 0
BBX 12 15 3 0
BITMAP
1F80
1F80
1F80
E070
E070
E070
E070
E070
E070
E070
E070
E070
1F80
1F80
1F80
ENDCHAR
STARTCHAR 0050
ENCODING 80
SWIDTH 750 0
DWIDTH 18 0
BBX 12 15 3 0
BITMAP
FF80
FF80
FF80
E070
E070
E070
FF80
FF80
FF80
E000
E000
E000
E000
E000
E000
ENDCHAR
STARTCHAR 0051
ENCODING 81
SWIDTH 750 0
DWIDTH 18 0
BBX 12 18 3 -3
BITMAP
1F80
1F80
1F80
E070
E070
E070
E070
E070
E070
E070
E070
E070
1F80
1F80
1F80
0070
0070
0070
ENDCHAR
STARTCHAR 0052
ENCODING 82
SWIDTH 750 0
DWIDTH 18 0
BBX 12 15 3 0
BITMAP
FF80
FF80
FF80
E070
E070
E070
FF80
FF80
FF80
E380
E380
E380
E070
E070
E070
ENDCHAR
STARTCHAR 0053
ENCODING 83
SWIDTH 750 0
DWIDTH 18 0
BBX 12 15 3 0
BITMAP
1FF0
1FF0
1FF0
E000
E000
E000
1F80
1F80
1F80
0070
0070
0070
FF80
FF80
FF80
ENDCHAR
STARTCHAR 0054
ENCODING 84
SWIDTH 625 0
DWIDTH 15 0
BBX 9 15 3 0
BITMAP
FF80
FF80
FF80
1C00
1C00
1C00
1C00
1C00
1C00
1C00
1C00
1C00
1C00
1C00
1C00
ENDCHAR
STARTCHAR 0055
ENCODING 85
SWIDTH 750 0
DWIDTH 18 0
BBX 12 15 3 0
BITMAP
E070
E070
E070
E070
E070
E070
E070
E070
E070
E070
E070
E070
1F80
1F80
1F80
ENDCHAR
STARTCHAR 0056
ENCODING 86
SWIDTH 875 0
DWIDTH 21 0
BBX 15 15 3 0
BITMAP
E00E
E00E
E00E
E00E
E00E
E00E
1C70
1C70
1C70
1C70
1C70
1C70
0380
0380
0380
ENDCHAR
STARTCHAR 0057
ENCODING 87
SWIDTH 875 0
DWIDTH 21 0
BBX 15 15 3 0
BITMAP
E00E
E00E
E00E
E38E
E38E
E38E
E38E
E38E
E38E
E38E
E38E
E38E
1C70
1C70
1C70
ENDCHAR
STARTCHAR 0058
ENCODING 88
SWIDTH 875 0
DWIDTH 21 0
BBX 15 15 3 0
BITMAP
E00E
E00E
E00E
1C70
1C70
1C70
0380
0380
0380
1C70
1C70
1C70
E00E
E00E
E00E
ENDCHAR
STARTCHAR 0059
ENCODING 89
SWIDTH 875 0
DWIDTH 21 0
BBX 15 15 3 0
BITMAP
E00E
E00E
E00E
1C70
1C70
1C70
0380
0380
0380
0380
0380
0380
0380
0380
0380
ENDCHAR
STARTCHAR 005A
ENCODING 90
SWIDTH 625 0
DWIDTH 15 0
BBX 9 15 3 0
BITMAP
FF80
FF80
FF80
0380
0380
0380
1C00
1C00
1C00
E000
E000
E000
FF80
FF80
FF80
ENDCHAR
STARTCHAR 005B
ENCODING 91
SWIDTH 500 0
DWIDTH 12 0
BBX 6 15 3 0
BITMAP
FC
FC
FC
E0
E0
E0
E0
E0
E0
E0
E0
E0
FC
FC
FC
ENDCHAR
STARTCHAR 005C
ENCODING 92
SWIDTH 625 0
DWIDTH 15 0
BBX 9 15 3 0
BITMAP
E000
E000
E000
E000
E000
E000
1C00
1C00
1C00
0380
0380
0380
0380
0380
0380
ENDCHAR
STARTCHAR 005D
ENCODING 93
SWIDTH 500 0
DWIDTH 12 0
BBX 6 15 3 0
BITMAP
FC
FC
FC
1C
1C
1C
1C
1C
1C
1C
1C
1C
FC
FC
FC
ENDCHAR
STARTCHAR 005E
ENCODING 94
SWIDTH 625 0
DWIDTH 15 0
BBX 9 6 3 12
BITMAP
1C00
1C00
1C00
E380
E380
E380
ENDCHAR
STARTCHAR 005F
ENCODING 95
SWIDTH 750 0
DWIDTH 18 0
BBX 12 3 3 -3
BITMAP
FFF0
FFF0
FFF0
ENDCHAR
STARTCHAR 0060
ENCODING 96
SWIDTH 500 0
DWIDTH 12 0
BBX 6 6 3 9
BITMAP
E0
E0
E0
1C
1C
1C
ENDCHAR
STARTCHAR 0061
ENCODING 97
SWIDTH 750 0
DWIDTH 18 0
BBX 12 15 3 0
BITMAP
1F80
1F80
1F80
E070
E070
E070
FFF0
FFF0
FFF0
E070
E070
E070
E070
E070
E070
ENDCHAR
STARTCHAR 0062
ENCODING 98
SWIDTH 750 0
DWIDTH 18 0
BBX 12 15 3 0
BITMAP
FF80
FF80
FF80
E070
E070
E070
FFF0
FFF0
FFF0
E070
E070
E070
FF80
FF80
FF80
ENDCHAR
STARTCHAR 0063
ENCODING 99
SWIDTH 750 0
DWIDTH 18 0
BBX 12 15 3 0
BITMAP
1F80
1F80
1F80
E070
E070
E070
E000
E000
E000
E070
E070
E070
1F80
1F80
1F80
ENDCHAR
STARTCHAR 0064
ENCODING 100
SWIDTH 750 0
DWIDTH 18 0
BBX 12 15 3 0
BITMAP
FF80
FF80
FF80
E070
E070
E070
E070
E070
E070
E070
E070
E070
FF80
FF80
FF80
ENDCHAR
STARTCHAR 0065
ENCODING 101
SWIDTH 625 0
DWIDTH 15 0
BBX 9 15 3 0
BITMAP
FF80
FF80
FF80
E000
E000
E000
FF80
FF80
FF80
E000
E000
E000
FF80
FF80
FF80
ENDCHAR
STARTCHAR 0066
ENCODING 102
SWIDTH 625 0
DWIDTH 15 0
BBX 9 15 3 0
BITMAP
FF80
FF80
FF80
E000
E000
E000
FF80
FF80
FF80
E000
E000
E000
E000
E000
E000
ENDCHAR
STARTCHAR 0067
ENCODING 103
SWIDTH 750 0
DWIDTH 18 0
BBX 12 15 3 0
BITMAP
1FF0
1FF0
1FF0
E000
E000
E000
E3F0
E3F0
E3F0
E070
E070
E070
1F80
1F80
1F80
ENDCHAR
STARTCHAR 0068
ENCODING 104
SWIDTH 750 0
DWIDTH 18 0
BBX 12 15 3 0
BITMAP
E070
E070
E070
E070
E070
E070
FFF0
FFF0
FFF0
E070
E070
E070
E070
E070
E070
ENDCHAR
STARTCHAR 0069
ENCODING 105
SWIDTH 375 0
DWIDTH 9 0
BBX 3 15 3 0
BITMAP
E0
E0
E0
E0
E0
E0
E0
E0
E0
E0
E0
E0
E0
E0
E0
ENDCHAR
STARTCHAR 006A
ENCODING 106
SWIDTH 750 0
DWIDTH 18 0
BBX 12 15 3 0
BITMAP
0070
0070
0070
0070
0070
0070
0070
0070
0070
E070
E070
E070
1F80
1F80
1F80
ENDCHAR
STARTCHAR 006B
ENCODING 107
SWIDTH 750 0
DWIDTH 18 0
BBX 12 15 3 0
BITMAP
E070
E070
E070
E380
E380
E380
FC00
FC00
FC00
E380
E380
E380
E070
E070
E070
ENDCHAR
STARTCHAR 006C
ENCODING 108
SWIDTH 625 0
DWIDTH 15 0
BBX 9 15 3 0
BITMAP
E000
E000
E000
E000
E000
E000
E000
E000
E000
E000
E000
E000
FF80
FF80
FF80
ENDCHAR
STARTCHAR 006D
ENCODING 109
SWIDTH 875 0
DWIDTH 21 0
BBX 15 15 3 0
BITMAP
E00E
E00E
E00E
FC7E
FC7E
FC7E
E38E
E38E
E38E
E00E
E00E
E00E
E00E
E00E
E00E
ENDCHAR
STARTCHAR 006E
ENCODING 110
SWIDTH 875 0
DWIDTH 21 0
BBX 15 15 3 0
BITMAP
E00E
E00E
E00E
FC0E
FC0E
FC0E
E38E
E38E
E38E
E07E
E07E
E07E
E00E
E00E
E00E
ENDCHAR
STARTCHAR 006F
ENCODING 111
SWIDTH 750 0
DWIDTH 18 0
BBX 12 15 3 0
BITMAP
1F80
1F80
1F80
E070
E070
E070
E070
E070
E070
E070
E070
E070
1F80
1F80
1F80
ENDCHAR
STARTCHAR 0070
ENCODING 112
SWIDTH 750 0
DWIDTH 18 0
BBX 12 15 3 0
BITMAP
FF80
FF80
FF80
E070
E070
E070
FF80
FF80
FF80
E000
E000
E000
E000
E000
E000
ENDCHAR
STARTCHAR 0071
ENCODING 113
SWIDTH 750 0
DWIDTH 18 0
BBX 12 18 3 -3
BITMAP
1F80
1F80
1F80
E070
E070
E070
E070
E070
E070
E070
E070
E070
1F80
1F80
1F80
0070
0070
0070
ENDCHAR
STARTCHAR 0072
ENCODING 114
SWIDTH 750 0
DWIDTH 18 0
BBX 12 15 3 0
BITMAP
FF80
FF80
FF80
E070
E070
E070
FF80
FF80
FF80
E380
E380
E380
E070
E070
E070
ENDCHAR
STARTCHAR 0073
ENCODING 115
SWIDTH 750 0
DWIDTH 18 0
BBX 12 15 3 0
BITMAP
1FF0
1FF0
1FF0
E000
E000
E000
1F80
1F80
1F80
0070
0070
0070
FF80
FF80
FF80
ENDCHAR
STARTCHAR 0074
ENCODING 116
SWIDTH 625 0
DWIDTH 15 0
BBX 9 15 3 0
BITMAP
FF80
FF80
FF80
1C00
1C00
1C00
1C00
1C00
1C00
1C00
1C00
1C00
1C00
1C00
1C00
ENDCHAR
STARTCHAR 0075
ENCODING 117
SWIDTH 750 0
DWIDTH 18 0
BBX 12 15 3 0
BITMAP
E070
E070
E070
E070
E070
E070
E070
E070
E070
E070
E070
E070
1F80
1F80
1F80
ENDCHAR
STARTCHAR 0076
ENCODING 118
SWIDTH 875 0
DWIDTH 21 0
BBX 15 15 3 0
BITMAP
E00E
E00E
E00E
E00E
E00E
E00E
1C70
1C70
1C70
1C70
1C70
1C70
0380
0380
0380
ENDCHAR
STARTCHAR 0077
ENCODING 119
SWIDTH 875 0
DWIDTH 21 0
BBX 15 15 3 0
BITMAP
E00E
E00E
E00E
E38E
E38E
E38E
E38E
E38E
E38E
E38E
E38E
E38E
1C70
1C70
1C70
ENDCHAR
STARTCHAR 0078
ENCODING 120
SWIDTH 875 0
DWIDTH 21 0
BBX 15 15 3 0
BITMAP
E00E
E00E
E00E
1C70
1C70
1C70
0380
0380
0380
1C70
1C70
1C70
E00E
E00E
E00E
ENDCHAR
STARTCHAR 0079
ENCODING 121
SWIDTH 875 0
DWIDTH 21 0
BBX 15 15 3 0
BITMAP
E00E
E00E
E00E
1C70
1C70
1C70
0380
0380
0380
0380
0380
0380
0380
0380
0380
ENDCHAR
STARTCHAR 007A
ENCODING 122
SWIDTH 625 0
DWIDTH 15 0
BBX 9 15 3 0
BITMAP
FF80
FF80
FF80
0380
0380
0380
1C00
1C00
1C00
E000
E000
E000
FF80
FF80
FF80
ENDCHAR
STARTCHAR 007B
ENCODING 123
SWIDTH 625 0
DWIDTH 15 0
BBX 9 15 3 0
BITMAP
1F80
1F80
1F80
1C00
1C00
1C00
E000
E000
E000
1C00
1C00
1C00
1F80
1F80
1F80
ENDCHAR
STARTCHAR 007C
ENCODING 124
SWIDTH 375 0
DWIDTH 9 0
BBX 3 21 3 -3
BITMAP
E0
E0
E0
E0
E0
E0
E0
E0
E0
E0
E0
E0
E0
E0
E0
E0
E0
E0
E0
E0
E0
ENDCHAR
STARTCHAR 007D
ENCODING 125
SWIDTH 625 0
DWIDTH 15 0
BBX 9 15 3 0
BITMAP
FC00
FC00
FC00
1C00
1C00
1C00
0380
0380
0380
1C00
1C00
1C00
FC00
FC00
FC00
ENDCHAR
STARTCHAR 007E
ENCODING 126
SWIDTH 750 0
DWIDTH 18 0
BBX 12 6 3 9
BITMAP
1C70
1C70
1C70
E380
E380
E380
ENDCHAR
STARTCHAR 00A0
ENCODING 160
SWIDTH 500 0
DWIDTH 12 0
BBX 0 0 0 0
BITMAP
ENDCHAR
STARTCHAR 00A1
ENCODING 161
SWIDTH 375 0
DWIDTH 9 0
BBX 3 15 3 0
BITMAP
E0
E0
E0
00
00
00
E0
E0
E0
E0
E0
E0
E0
E0
E0
ENDCHAR
STARTCHAR 00A2
ENCODING 162
SWIDTH 625 0
DWIDTH 15 0
BBX 9 15 3 0
BITMAP
1C00
1C00
1C00
FF80
FF80
FF80
E000
E000
E000
FF80
FF80
FF80
1C00
1C00
1C00
ENDCHAR
STARTCHAR 00A3
ENCODING 163
SWIDTH 750 0
DWIDTH 18 0
BBX 12 15 3 0
BITMAP
03F0
03F0
03F0
0380
0380
0380
FF80
FF80
FF80
1C00
1C00
1C00
FFF0
FFF0
FFF0
ENDCHAR
STARTCHAR 00A4
ENCODING 164
SWIDTH 875 0
DWIDTH 21 0
BBX 15 15 3 0
BITMAP
E38E
E38E
E38E
1C70
1C70
1C70
1C70
1C70
1C70
1C70
1C70
1C70
E38E
E38E
E38E
ENDCHAR
STARTCHAR 00A5
ENCODING 165
SWIDTH 875 0
DWIDTH 21 0
BBX 15 15 3 0
BITMAP
E00E
E00E
E00E
1FF0
1FF0
1FF0
0380
0380
0380
1FF0
1FF0
1FF0
0380
0380
0380
ENDCHAR
STARTCHAR 00A6
ENCODING 166
SWIDTH 375 0
DWIDTH 9 0
BBX 3 15 3 0
BITMAP
E0
E0
E0
E0
E0
E0
00
00
00
E0
E0
E0
E0
E0
E0
ENDCHAR
STARTCHAR 00A7
ENCODING 167
SWIDTH 750 0
DWIDTH 18 0
BBX 12 21 3 -3
BITMAP
1F80
1F80
1F80
E000
E000
E000
1F80
1F80
1F80
E070
E070
E070
1F80
1F80
1F80
0070
0070
0070
1F80
1F80
1F80
ENDCHAR
STARTCHAR 00A8
ENCODING 168
SWIDTH 625 0
DWIDTH 15 0
BBX 9 3 3 12
BITMAP
E380
E380
E380
ENDCHAR
STARTCHAR 00A9
ENCODING 169
SWIDTH 1125 0
DWIDTH 27 0
BBX 21 21 3 -3
BITMAP
1FFFC0
1FFFC0
1FFFC0
E00038
E00038
E00038
E3FE38
E3FE38
E3FE38
E38038
E38038
E38038
E3FE38
E3FE38
E3FE38
E00038
E00038
E00038
1FFFC0
1FFFC0
1FFFC0
ENDCHAR
STARTCHAR 00AA
ENCODING 170
SWIDTH 625 0
DWIDTH 15 0
BBX 9 9 3 6
BITMAP
1C00
1C00
1C00
E380
E380
E380
1F80
1F80
1F80
ENDCHAR
STARTCHAR 00AB
ENCODING 171
SWIDTH 875 0
DWIDTH 21 0
BBX 15 9 3 3
BITMAP
1C0E
1C0E
1C0E
E070
E070
E070
1C0E
1C0E
1C0E
ENDCHAR
STARTCHAR 00AC
ENCODING 172
SWIDTH 750 0
DWIDTH 18 0
BBX 12 6 3 3
BITMAP
FFF0
FFF0
FFF0
0070
0070
0070
ENDCHAR
STARTCHAR 00AD
ENCODING 173
SWIDTH 625 0
DWIDTH 15 0
BBX 9 3 3 6
BITMAP
FF80
FF80
FF80
ENDCHAR
STARTCHAR 00AE
ENCODING 174
SWIDTH 1125 0
DWIDTH 27 0
BBX 21 21 3 -3
BITMAP
1FFFC0
1FFFC0
1FFFC0
E00038
E00038
E00038
E07E38
E07E38
E07E38
E38038
E38038
E38038
E38038
E38038
E38038
E00038
E00038
E00038
1FFFC0
1FFFC0
1FFFC0
ENDCHAR
STARTCHAR 00AF
ENCODING 175
SWIDTH 750 0
DWIDTH 18 0
BBX 12 3 3 12
BITMAP
FFF0
FFF0
FFF0
ENDCHAR
STARTCHAR 00B0
ENCODING 176
SWIDTH 625 0
DWIDTH 15 0
BBX 9 9 3 6
BITMAP
1C00
1C00
1C00
E380
E380
E380
1C00
1C00
1C00
ENDCHAR
STARTCHAR 00B1
ENCODING 177
SWIDTH 875 0
DWIDTH 21 0
BBX 15 18 3 -3
BITMAP
0380
0380
0380
0380
0380
0380
FFFE
FFFE
FFFE
0380
0380
0380
0380
0380
0380
FFFE
FFFE
FFFE
ENDCHAR
STARTCHAR 00B2
ENCODING 178
SWIDTH 625 0
DWIDTH 15 0
BBX 9 12 3 3
BITMAP
FC00
FC00
FC00
0380
0380
0380
1C00
1C00
1C00
FF80
FF80
FF80
ENDCHAR
STARTCHAR 00B3
ENCODING 179
SWIDTH 625 0
DWIDTH 15 0
BBX 9 12 3 3
BITMAP
FC00
FC00
FC00
1F80
1F80
1F80
0380
0380
0380
FF80
FF80
FF80
ENDCHAR
STARTCHAR 00B4
ENCODING 180
SWIDTH 500 0
DWIDTH 12 0
BBX 6 6 3 9
BITMAP
1C
1C
1C
E0
E0
E0
ENDCHAR
STARTCHAR 00B5
ENCODING 181
SWIDTH 750 0
DWIDTH 18 0
BBX 12 18 3 -3
BITMAP
E070
E070
E070
E070
E070
E070
E070
E070
E070
E070
E070
E070
FF80
FF80
FF80
E000
E000
E000
ENDCHAR
STARTCHAR 00B6
ENCODING 182
SWIDTH 875 0
DWIDTH 21 0
BBX 15 15 3 0
BITMAP
1FFE
1FFE
1FFE
E38E
E38E
E38E
1FFE
1FFE
1FFE
038E
038E
038E
038E
038E
038E
ENDCHAR
STARTCHAR 00B7
ENCODING 183
SWIDTH 375 0
DWIDTH 9 0
BBX 3 3 3 6
BITMAP
E0
E0
E0
ENDCHAR
STARTCHAR 00B8
ENCODING 184
SWIDTH 500 0
DWIDTH 12 0
BBX 6 6 3 -3
BITMAP
1C
1C
1C
E0
E0
E0
ENDCHAR
STARTCHAR 00B9
ENCODING 185
SWIDTH 500 0
DWIDTH 12 0
BBX 6 12 3 3
BITMAP
FC
FC
FC
1C
1C
1C
1C
1C
1C
1C
1C
1C
ENDCHAR
STARTCHAR 00BA
ENCODING 186
SWIDTH 625 0
DWIDTH 15 0
BBX 9 9 3 6
BITMAP
1C00
1C00
1C00
E380
E380
E380
1C00
1C00
1C00
ENDCHAR
STARTCHAR 00BB
ENCODING 187
SWIDTH 875 0
DWIDTH 21 0
BBX 15 9 3 3
BITMAP
E070
E070
E070
1C0E
1C0E
1C0E
E070
E070
E070
ENDCHAR
STARTCHAR 00BC
ENCODING 188
SWIDTH 1125 0
DWIDTH 27 0
BBX 21 15 3 0
BITMAP
E07000
E07000
E07000
E07000
E07000
E07000
E38E38
E38E38
E38E38
1C0FF8
1C0FF8
1C0FF8
1C0038
1C0038
1C0038
ENDCHAR
STARTCHAR 00BD
ENCODING 189
SWIDTH 1125 0
DWIDTH 27 0
BBX 21 15 3 0
BITMAP
E07000
E07000
E07000
E07FC0
E07FC0
E07FC0
E38038
E38038
E38038
1C01C0
1C01C0
1C01C0
1C0FF8
1C0FF8
1C0FF8
ENDCHAR
STARTCHAR 00BE
ENCODING 190
SWIDTH 1250 0
DWIDTH 30 0
BBX 24 15 3 0
BITMAP
FC0E00
FC0E00
FC0E00
1F8E00
1F8E00
1F8E00
03F1C7
03F1C7
03F1C7
FF81FF
FF81FF
FF81FF
038007
038007
038007
ENDCHAR
STARTCHAR 00BF
ENCODING 191
SWIDTH 750 0
DWIDTH 18 0
BBX 12 15 3 0
BITMAP
0380
0380
0380
0000
0000
0000
1F80
1F80
1F80
E000
E000
E000
1FF0
1FF0
1FF0
ENDCHAR
STARTCHAR 00C0
ENCODING 192
SWIDTH 750 0
DWIDTH 18 0
BBX 12 24 3 0
BITMAP
1C00
1C00
1C00
0380
0380
0380
0000
0000
0000
1F80
1F80
1F80
E070
E070
E070
FFF0
FFF0
FFF0
E070
E070
E070
E070
E070
E070
ENDCHAR
STARTCHAR 00C1
ENCODING 193
SWIDTH 750 0
DWIDTH 18 0
BBX 12 24 3 0
BITMAP
0380
0380
0380
1C00
1C00
1C00
0000
0000
0000
1F80
1F80
1F80
E070
E070
E070
FFF0
FFF0
FFF0
E070
E070
E070
E070
E070
E070
ENDCHAR
STARTCHAR 00C2
ENCODING 194
SWIDTH 750 0
DWIDTH 18 0
BBX 12 24 3 0
BITMAP
1F80
1F80
1F80
E070
E070
E070
0000
0000
0000
1F80
1F80
1F80
E070
E070
E070
FFF0
FFF0
FFF0
E070
E070
E070
E070
E070
E070
ENDCHAR
STARTCHAR 00C3
ENCODING 195
SWIDTH 750 0
DWIDTH 18 0
BBX 12 24 3 0
BITMAP
1C70
1C70
1C70
E380
E380
E380
0000
0000
0000
1F80
1F80
1F80
E070
E070
E070
FFF0
FFF0
FFF0
E070
E070
E070
E070
E070
E070
ENDCHAR
STARTCHAR 00C4
ENCODING 196
SWIDTH 750 0
DWIDTH 18 0
BBX 12 21 3 0
BITMAP
E070
E070
E070
0000
0000
0000
1F80
1F80
1F80
E070
E070
E070
FFF0
FFF0
FFF0
E070
E070
E070
E070
E070
E070
ENDCHAR
STARTCHAR 00C5
ENCODING 197
SWIDTH 750 0
DWIDTH 18 0
BBX 12 24 3 0
BITMAP
E070
E070
E070
1F80
1F80
1F80
0000
0000
0000
1F80
1F80
1F80
E070
E070
E070
FFF0
FFF0
FFF0
E070
E070
E070
E070
E070
E070
ENDCHAR
STARTCHAR 00C6
ENCODING 198
SWIDTH 875 0
DWIDTH 21 0
BBX 15 15 3 0
BITMAP
1FFE
1FFE
1FFE
E380
E380
E380
FFFE
FFFE
FFFE
E380
E380
E380
E3FE
E3FE
E3FE
ENDCHAR
STARTCHAR 00C7
ENCODING 199
SWIDTH 750 0
DWIDTH 18 0
BBX 12 21 3 -6
BITMAP
1F80
1F80
1F80
E070
E070
E070
E000
E000
E000
E070
E070
E070
1F80
1F80
1F80
1C00
1C00
1C00
E000
E000
E000
ENDCHAR
STARTCHAR 00C8
ENCODING 200
SWIDTH 625 0
DWIDTH 15 0
BBX 9 24 3 0
BITMAP
E000
E000
E000
1C00
1C00
1C00
0000
0000
0000
FF80
FF80
FF80
E000
E000
E000
FF80
FF80
FF80
E000
E000
E000
FF80
FF80
FF80
ENDCHAR
STARTCHAR 00C9
ENCODING 201
SWIDTH 625 0
DWIDTH 15 0
BBX 9 24 3 0
BITMAP
0380
0380
0380
1C00
1C00
1C00
0000
0000
0000
FF80
FF80
FF80
E000
E000
E000
FF80
FF80
FF80
E000
E000
E000
FF80
FF80
FF80
ENDCHAR
STARTCHAR 00CA
ENCODING 202
SWIDTH 625 0
DWIDTH 15 0
BBX 9 24 3 0
BITMAP
1C00
1C00
1C00
E380
E380
E380
0000
0000
0000
FF80
FF80
FF80
E000
E000
E000
FF80
FF80
FF80
E000
E000
E000
FF80
FF80
FF80
ENDCHAR
STARTCHAR 00CB
ENCODING 203
SWIDTH 625 0
DWIDTH 15 0
BBX 9 21 3 0
BITMAP
E380
E380
E380
0000
0000
0000
FF80
FF80
FF80
E000
E000
E000
FF80
FF80
FF80
E000
E000
E000
FF80
FF80
FF80
ENDCHAR
STARTCHAR 00CC
ENCODING 204
SWIDTH 375 0
DWIDTH 9 0
BBX 6 24 0 0
BITMAP
E0
E0
E0
1C
1C
1C
00
00
00
1C
1C
1C
1C
1C
1C
1C
1C
1C
1C
1C
1C
1C
1C
1C
ENDCHAR
STARTCHAR 00CD
ENCODING 205
SWIDTH 375 0
DWIDTH 9 0
BBX 6 24 3 0
BITMAP
1C
1C
1C
E0
E0
E0
00
00
00
E0
E0
E0
E0
E0
E0
E0
E0
E0
E0
E0
E0
E0
E0
E0
ENDCHAR
STARTCHAR 00CE
ENCODING 206
SWIDTH 375 0
DWIDTH 9 0
BBX 9 24 0 0
BITMAP
1C00
1C00
1C00
E380
E380
E380
0000
0000
0000
1C00
1C00
1C00
1C00
1C00
1C00
1C00
1C00
1C00
1C00
1C00
1C00
1C00
1C00
1C00
ENDCHAR
STARTCHAR 00CF
ENCODING 207
SWIDTH 375 0
DWIDTH 9 0
BBX 9 21 0 0
BITMAP
E380
E380
E380
0000
0000
0000
1C00
1C00
1C00
1C00
1C00
1C00
1C00
1C00
1C00
1C00
1C00
1C00
1C00
1C00
1C00
ENDCHAR
STARTCHAR 00D0
ENCODING 208
SWIDTH 875 0
DWIDTH 21 0
BBX 15 15 3 0
BITMAP
1FF0
1FF0
1FF0
1C0E
1C0E
1C0E
FF8E
FF8E
FF8E
1C0E
1C0E
1C0E
1FF0
1FF0
1FF0
ENDCHAR
STARTCHAR 00D1
ENCODING 209
SWIDTH 875 0
DWIDTH 21 0
BBX 15 24 3 0
BITMAP
038E
038E
038E
1C70
1C70
1C70
0000
0000
0000
E00E
E00E
E00E
FC0E
FC0E
FC0E
E38E
E38E
E38E
E07E
E07E
E07E
E00E
E00E
E00E
ENDCHAR
STARTCHAR 00D2
ENCODING 210
SWIDTH 750 0
DWIDTH 18 0
BBX 12 24 3 0
BITMAP
1C00
1C00
1C00
0380
0380
0380
0000
0000
0000
1F80
1F80
1F80
E070
E070
E070
E070
E070
E070
E070
E070
E070
1F80
1F80
1F80
ENDCHAR
STARTCHAR 00D3
ENCODING 211
SWIDTH 750 0
DWIDTH 18 0
BBX 12 24 3 0
BITMAP
0380
0380
0380
1C00
1C00
1C00
0000
0000
0000
1F80
1F80
1F80
E070
E070
E070
E070
E070
E070
E070
E070
E070
1F80
1F80
1F80
ENDCHAR
STARTCHAR 00D4
ENCODING 212
SWIDTH 750 0
DWIDTH 18 0
BBX 12 24 3 0
BITMAP
1F80
1F80
1F80
E070
E070
E070
0000
0000
0000
1F80
1F80
1F80
E070
E070
E070
E070
E070
E070
E070
E070
E070
1F80
1F80
1F80
ENDCHAR
STARTCHAR 00D5
ENCODING 213
SWIDTH 750 0
DWIDTH 18 0
BBX 12 24 3 0
BITMAP
1C70
1C70
1C70
E380
E380
E380
0000
0000
0000
1F80
1F80
1F80
E070
E070
E070
E070
E070
E070
E070
E070
E070
1F80
1F80
1F80
ENDCHAR
STARTCHAR 00D6
ENCODING 214
SWIDTH 750 0
DWIDTH 18 0
BBX 12 21 3 0
BITMAP
E070
E070
E070
0000
0000
0000
1F80
1F80
1F80
E070
E070
E070
E070
E070
E070
E070
E070
E070
1F80
1F80
1F80
ENDCHAR
STARTCHAR 00D7
ENCODING 215
SWIDTH 625 0
DWIDTH 15 0
BBX 9 9 3 3
BITMAP
E380
E380
E380
1C00
1C00
1C00
E380
E380
E380
ENDCHAR
STARTCHAR 00D8
ENCODING 216
SWIDTH 875 0
DWIDTH 21 0
BBX 15 15 3 0
BITMAP
1FF0
1FF0
1FF0
E07E
E07E
E07E
E38E
E38E
E38E
FC0E
FC0E
FC0E
1FF0
1FF0
1FF0
ENDCHAR
STARTCHAR 00D9
ENCODING 217
SWIDTH 750 0
DWIDTH 18 0
BBX 12 24 3 0
BITMAP
1C00
1C00
1C00
0380
0380
0380
0000
0000
0000
E070
E070
E070
E070
E070
E070
E070
E070
E070
E070
E070
E070
1F80
1F80
1F80
ENDCHAR
STARTCHAR 00DA
ENCODING 218
SWIDTH 750 0
DWIDTH 18 0
BBX 12 24 3 0
BITMAP
0380
0380
0380
1C00
1C00
1C00
0000
0000
0000
E070
E070
E070
E070
E070
E070
E070
E070
E070
E070
E070
E070
1F80
1F80
1F80
ENDCHAR
STARTCHAR 00DB
ENCODING 219
SWIDTH 750 0
DWIDTH 18 0
BBX 12 24 3 0
BITMAP
1F80
1F80
1F80
E070
E070
E070
0000
0000
0000
E070
E070
E070
E070
E070
E070
E070
E070
E070
E070
E070
E070
1F80
1F80
1F80
ENDCHAR
STARTCHAR 00DC
ENCODING 220
SWIDTH 750 0
DWIDTH 18 0
BBX 12 21 3 0
BITMAP
E070
E070
E070
0000
0000
0000
E070
E070
E070
E070
E070
E070
E070
E070
E070
E070
E070
E070
1F80
1F80
1F80
ENDCHAR
STARTCHAR 00DD
ENCODING 221
SWIDTH 875 0
DWIDTH 21 0
BBX 15 24 3 0
BITMAP
0070
0070
0070
0380
0380
0380
0000
0000
0000
E00E
E00E
E00E
1C70
1C70
1C70
0380
0380
0380
0380
0380
0380
0380
0380
0380
ENDCHAR
STARTCHAR 00DE
ENCODING 222
SWIDTH 625 0
DWIDTH 15 0
BBX 9 15 3 0
BITMAP
E000
E000
E000
FC00
FC00
FC00
E380
E380
E380
FC00
FC00
FC00
E000
E000
E000
ENDCHAR
STARTCHAR 00DF
ENCODING 223
SWIDTH 750 0
DWIDTH 18 0
BBX 12 15 3 0
BITMAP
1F80
1F80
1F80
E070
E070
E070
E380
E380
E380
E070
E070
E070
E380
E380
E380
ENDCHAR
STARTCHAR 00E0
ENCODING 224
SWIDTH 750 0
DWIDTH 18 0
BBX 12 24 3 0
BITMAP
1C00
1C00
1C00
0380
0380
0380
0000
0000
0000
1F80
1F80
1F80
E070
E070
E070
FFF0
FFF0
FFF0
E070
E070
E070
E070
E070
E070
ENDCHAR
STARTCHAR 00E1
ENCODING 225
SWIDTH 750 0
DWIDTH 18 0
BBX 12 24 3 0
BITMAP
0380
0380
0380
1C00
1C00
1C00
0000
0000
0000
1F80
1F80
1F80
E070
E070
E070
FFF0
FFF0
FFF0
E070
E070
E070
E070
E070
E070
ENDCHAR
STARTCHAR 00E2
ENCODING 226
SWIDTH 750 0
DWIDTH 18 0
BBX 12 24 3 0
BITMAP
1F80
1F80
1F80
E070
E070
E070
0000
0000
0000
1F80
1F80
1F80
E070
E070
E070
FFF0
FFF0
FFF0
E070
E070
E070
E070
E070
E070
ENDCHAR
STARTCHAR 00E3
ENCODING 227
SWIDTH 750 0
DWIDTH 18 0
BBX 12 24 3 0
BITMAP
1C70
1C70
1C70
E380
E380
E380
0000
0000
0000
1F80
1F80
1F80
E070
E070
E070
FFF0
FFF0
FFF0
E070
E070
E070
E070
E070
E070
ENDCHAR
STARTCHAR 00E4
ENCODING 228
SWIDTH 750 0
DWIDTH 18 0
BBX 12 21 3 0
BITMAP
E070
E070
E070
0000
0000
0000
1F80
1F80
1F80
E070
E070
E070
FFF0
FFF0
FFF0
E070
E070
E070
E070
E070
E070
ENDCHAR
STARTCHAR 00E5
ENCODING 229
SWIDTH 750 0
DWIDTH 18 0
BBX 12 24 3 0
BITMAP
E070
E070
E070
1F80
1F80
1F80
0000
0000
0000
1F80
1F80
1F80
E070
E070
E070
FFF0
FFF0
FFF0
E070
E070
E070
E070
E070
E070
ENDCHAR
STARTCHAR 00E6
ENCODING 230
SWIDTH 875 0
DWIDTH 21 0
BBX 15 15 3 0
BITMAP
1FFE
1FFE
1FFE
E380
E380
E380
FFFE
FFFE
FFFE
E380
E380
E380
E3FE
E3FE
E3FE
ENDCHAR
STARTCHAR 00E7
ENCODING 231
SWIDTH 750 0
DWIDTH 18 0
BBX 12 21 3 -6
BITMAP
1F80
1F80
1F80
E070
E070
E070
E000
E000
E000
E070
E070
E070
1F80
1F80
1F80
1C00
1C00
1C00
E000
E000
E000
ENDCHAR
STARTCHAR 00E8
ENCODING 232
SWIDTH 625 0
DWIDTH 15 0
BBX 9 24 3 0
BITMAP
E000
E000
E000
1C00
1C00
1C00
0000
0000
0000
FF80
FF80
FF80
E000
E000
E000
FF80
FF80
FF80
E000
E000
E000
FF80
FF80
FF80
ENDCHAR
STARTCHAR 00E9
ENCODING 233
SWIDTH 625 0
DWIDTH 15 0
BBX 9 24 3 0
BITMAP
0380
0380
0380
1C00
1C00
1C00
0000
0000
0000
FF80
FF80
FF80
E000
E000
E000
FF80
FF80
FF80
E000
E000
E000
FF80
FF80
FF80
ENDCHAR
STARTCHAR 00EA
ENCODING 234
SWIDTH 625 0
DWIDTH 15 0
BBX 9 24 3 0
BITMAP
1C00
1C00
1C00
E380
E380
E380
0000
0000
0000
FF80
FF80
FF80
E000
E000
E000
FF80
FF80
FF80
E000
E000
E000
FF80
FF80
FF80
ENDCHAR
STARTCHAR 00EB
ENCODING 235
SWIDTH 625 0
DWIDTH 15 0
BBX 9 21 3 0
BITMAP
E380
E380
E380
0000
0000
0000
FF80
FF80
FF80
E000
E000
E000
FF80
FF80
FF80
E000
E000
E000
FF80
FF80
FF80
ENDCHAR
STARTCHAR 00EC
ENCODING 236
SWIDTH 375 0
DWIDTH 9 0
BBX 6 24 0 0
BITMAP
E0
E0
E0
1C
1C
1C
00
00
00
1C
1C
1C
1C
1C
1C
1C
1C
1C
1C
1C
1C
1C
1C
1C
ENDCHAR
STARTCHAR 00ED
ENCODING 237
SWIDTH 375 0
DWIDTH 9 0
BBX 6 24 3 0
BITMAP
1C
1C
1C
E0
E0
E0
00
00
00
E0
E0
E0
E0
E0
E0
E0
E0
E0
E0
E0
E0
E0
E0
E0
ENDCHAR
STARTCHAR 00EE
ENCODING 238
SWIDTH 375 0
DWIDTH 9 0
BBX 9 24 0 0
BITMAP
1C00
1C00
1C00
E380
E380
E380
0000
0000
0000
1C00
1C00
1C00
1C00
1C00
1C00
1C00
1C00
1C00
1C00
1C00
1C00
1C00
1C00
1C00
ENDCHAR
STARTCHAR 00EF
ENCODING 239
SWIDTH 375 0
DWIDTH 9 0
BBX 9 21 0 0
BITMAP
E380
E380
E380
0000
0000
0000
1C00
1C00
1C00
1C00
1C00
1C00
1C00
1C00
1C00
1C00
1C00
1C00
1C00
1C00
1C00
ENDCHAR
STARTCHAR 00F0
ENCODING 240
SWIDTH 875 0
DWIDTH 21 0
BBX 15 15 3 0
BITMAP
1FF0
1FF0
1FF0
1C0E
1C0E
1C0E
FF8E
FF8E
FF8E
1C0E
1C0E
1C0E
1FF0
1FF0
1FF0
ENDCHAR
STARTCHAR 00F1
ENCODING 241
SWIDTH 875 0
DWIDTH 21 0
BBX 15 24 3 0
BITMAP
038E
038E
038E
1C70
1C70
1C70
0000
0000
0000
E00E
E00E
E00E
FC0E
FC0E
FC0E
E38E
E38E
E38E
E07E
E07E
E07E
E00E
E00E
E00E
ENDCHAR
STARTCHAR 00F2
ENCODING 242
SWIDTH 750 0
DWIDTH 18 0
BBX 12 24 3 0
BITMAP
1C00
1C00
1C00
0380
0380
0380
0000
0000
0000
1F80
1F80
1F80
E070
E070
E070
E070
E070
E070
E070
E070
E070
1F80
1F80
1F80
ENDCHAR
STARTCHAR 00F3
ENCODING 243
SWIDTH 750 0
DWIDTH 18 0
BBX 12 24 3 0
BITMAP
0380
0380
0380
1C00
1C00
1C00
0000
0000
0000
1F80
1F80
1F80
E070
E070
E070
E070
E070
E070
E070
E070
E070
1F80
1F80
1F80
ENDCHAR
STARTCHAR 00F4
ENCODING 244
SWIDTH 750 0
DWIDTH 18 0
BBX 12 24 3 0
BITMAP
1F80
1F80
1F80
E070
E070
E070
0000
0000
0000
1F80
1F80
1F80
E070
E070
E070
E070
E070
E070
E070
E070
E070
1F80
1F80
1F80
ENDCHAR
STARTCHAR 00F5
ENCODING 245
SWIDTH 750 0
DWIDTH 18 0
BBX 12 24 3 0
BITMAP
1C70
1C70
1C70
E380
E380
E380
0000
0000
0000
1F80
1F80
1F80
E070
E070
E070
E070
E070
E070
E070
E070
E070
1F80
1F80
1F80
ENDCHAR
STARTCHAR 00F6
ENCODING 246
SWIDTH 750 0
DWIDTH 18 0
BBX 12 21 3 0
BITMAP
E070
E070
E070
0000
0000
0000
1F80
1F80
1F80
E070
E070
E070
E070
E070
E070
E070
E070
E070
1F80
1F80
1F80
ENDCHAR
STARTCHAR 00F7
ENCODING 247
SWIDTH 625 0
DWIDTH 15 0
BBX 9 15 3 0
BITMAP
1C00
1C00
1C00
0000
0000
0000
FF80
FF80
FF80
0000
0000
0000
1C00
1C00
1C00
ENDCHAR
STARTCHAR 00F8
ENCODING 248
SWIDTH 875 0
DWIDTH 21 0
BBX 15 15 3 0
BITMAP
1FF0
1FF0
1FF0
E07E
E07E
E07E
E38E
E38E
E38E
FC0E
FC0E
FC0E
1FF0
1FF0
1FF0
ENDCHAR
STARTCHAR 00F9
ENCODING 249
SWIDTH 750 0
DWIDTH 18 0
BBX 12 24 3 0
BITMAP
1C00
1C00
1C00
0380
0380
0380
0000
0000
0000
E070
E070
E070
E070
E070
E070
E070
E070
E070
E070
E070
E070
1F80
1F80
1F80
ENDCHAR
STARTCHAR 00FA
ENCODING 250
SWIDTH 750 0
DWIDTH 18 0
BBX 12 24 3 0
BITMAP
0380
0380
0380
1C00
1C00
1C00
0000
0000
0000
E070
E070
E070
E070
E070
E070
E070
E070
E070
E070
E070
E070
1F80
1F80
1F80
ENDCHAR
STARTCHAR 00FB
ENCODING 251
SWIDTH 750 0
DWIDTH 18 0
BBX 12 24 3 0
BITMAP
1F80
1F80
1F80
E070
E070
E070
0000
0000
0000
E070
E070
E070
E070
E070
E070
E070
E070
E070
E070
E070
E070
1F80
1F80
1F80
ENDCHAR
STARTCHAR 00FC
ENCODING 252
SWIDTH 750 0
DWIDTH 18 0
BBX 12 21 3 0
BITMAP
E070
E070
E070
0000
0000
0000
E070
E070
E070
E070
E070
E070
E070
E070
E070
E070
E070
E070
1F80
1F80
1F80
ENDCHAR
STARTCHAR 00FD
ENCODING 253
SWIDTH 875 0
DWIDTH 21 0
BBX 15 24 3 0
BITMAP
0070
0070
0070
0380
0380
0380
0000
0000
0000
E00E
E00E
E00E
1C70
1C70
1C70
0380
0380
0380
0380
0380
0380
0380
0380
0380
ENDCHAR
STARTCHAR 00FE
ENCODING 254
SWIDTH 625 0
DWIDTH 15 0
BBX 9 15 3 0
BITMAP
E000
E000
E000
FC00
FC00
FC00
E380
E380
E380
FC00
FC00
FC00
E000
E000
E000
ENDCHAR
STARTCHAR 00FF
ENCODING 255
SWIDTH 875 0
DWIDTH 21 0
BBX 15 21 3 0
BITMAP
1C70
1C70
1C70
0000
0000
0000
E00E
E00E
E00E
1C70
1C70
1C70
0380
0380
0380
0380
0380
0380
0380
0380
0380
ENDCHAR
STARTCHAR 0152
ENCODING 338
SWIDTH 875 0
DWIDTH 21 0
BBX 15 15 3 0
BITMAP
1FFE
1FFE
1FFE
E380
E380
E380
E3FE
E3FE
E3FE
E380
E380
E380
1FFE
1FFE
1FFE
ENDCHAR
STARTCHAR 0153
ENCODING 339
SWIDTH 875 0
DWIDTH 21 0
BBX 15 15 3 0
BITMAP
1FFE
1FFE
1FFE
E380
E380
E380
E3FE
E3FE
E3FE
E380
E380
E380
1FFE
1FFE
1FFE
ENDCHAR
STARTCHAR 0160
ENCODING 352
SWIDTH 750 0
DWIDTH 18 0
BBX 12 24 3 0
BITMAP
E070
E070
E070
1F80
1F80
1F80
0000
0000
0000
1FF0
1FF0
1FF0
E000
E000
E000
1F80
1F80
1F80
0070
0070
0070
FF80
FF80
FF80
ENDCHAR
STARTCHAR 0161
ENCODING 353
SWIDTH 750 0
DWIDTH 18 0
BBX 12 24 3 0
BITMAP
E070
E070
E070
1F80
1F80
1F80
0000
0000
0000
1FF0
1FF0
1FF0
E000
E000
E000
1F80
1F80
1F80
0070
0070
0070
FF80
FF80
FF80
ENDCHAR
STARTCHAR 0178
ENCODING 376
SWIDTH 875 0
DWIDTH 21 0
BBX 15 21 3 0
BITMAP
1C70
1C70
1C70
0000
0000
0000
E00E
E00E
E00E
1C70
1C70
1C70
0380
0380
0380
0380
0380
0380
0380
0380
0380
ENDCHAR
STARTCHAR 017D
ENCODING 381
SWIDTH 625 0
DWIDTH 15 0
BBX 9 24 3 0
BITMAP
E380
E380
E380
1C00
1C00
1C00
0000
0000
0000
FF80
FF80
FF80
0380
0380
0380
1C00
1C00
1C00
E000
E000
E000
FF80
FF80
FF80
ENDCHAR
STARTCHAR 017E
ENCODING 382
SWIDTH 625 0
DWIDTH 15 0
BBX 9 24 3 0
BITMAP
E380
E380
E380
1C00
1C00
1C00
0000
0000
0000
FF80
FF80
FF80
0380
0380
0380
1C00
1C00
1C00
E000
E000
E000
FF80
FF80
FF80
ENDCHAR
STARTCHAR 0192
ENCODING 402
SWIDTH 875 0
DWIDTH 21 0
BBX 15 18 3 -3
BITMAP
03FE
03FE
03FE
0380
0380
0380
1FF0
1FF0
1FF0
1C00
1C00
1C00
1C00
1C00
1C00
E000
E000
E000
ENDCHAR
STARTCHAR 02C6
ENCODING 710
SWIDTH 625 0
DWIDTH 15 0
BBX 9 6 3 12
BITMAP
1C00
1C00
1C00
E380
E380
E380
ENDCHAR
STARTCHAR 02DC
ENCODING 732
SWIDTH 750 0
DWIDTH 18 0
BBX 12 6 3 9
BITMAP
1C70
1C70
1C70
E380
E380
E380
ENDCHAR
STARTCHAR 2013
ENCODING 8211
SWIDTH 750 0
DWIDTH 18 0
BBX 12 3 3 6
BITMAP
FFF0
FFF0
FFF0
ENDCHAR
STARTCHAR 2014
ENCODING 8212
SWIDTH 1000 0
DWIDTH 24 0
BBX 18 3 3 6
BITMAP
FFFFC0
FFFFC0
FFFFC0
ENDCHAR
STARTCHAR 2018
ENCODING 8216
SWIDTH 375 0
DWIDTH 9 0
BBX 3 6 3 9
BITMAP
E0
E0
E0
E0
E0
E0
ENDCHAR
STARTCHAR 2019
ENCODING 8217
SWIDTH 375 0
DWIDTH 9 0
BBX 3 6 3 9
BITMAP
E0
E0
E0
E0
E0
E0
ENDCHAR
STARTCHAR 201A
ENCODING 8218
SWIDTH 500 0
DWIDTH 12 0
BBX 6 6 3 -3
BITMAP
1C
1C
1C
E0
E0
E0
ENDCHAR
STARTCHAR 201C
ENCODING 8220
SWIDTH 625 0
DWIDTH 15 0
BBX 9 6 3 9
BITMAP
E380
E380
E380
E380
E380
E380
ENDCHAR
STARTCHAR 201D
ENCODING 8221
SWIDTH 625 0
DWIDTH 15 0
BBX 9 6 3 9
BITMAP
E380
E380
E380
E380
E380
E380
ENDCHAR
STARTCHAR 201E
ENCODING 8222
SWIDTH 625 0
DWIDTH 15 0
BBX 9 6 3 0
BITMAP
E380
E380
E380
E380
E380
E380
ENDCHAR
STARTCHAR 2020
ENCODING 8224
SWIDTH 625 0
DWIDTH 15 0
BBX 9 15 3 0
BITMAP
1C00
1C00
1C00
FF80
FF80
FF80
1C00
1C00
1C00
1C00
1C00
1C00
1C00
1C00
1C00
ENDCHAR
STARTCHAR 2021
ENCODING 8225
SWIDTH 625 0
DWIDTH 15 0
BBX 9 15 3 0
BITMAP
1C00
1C00
1C00
FF80
FF80
FF80
1C00
1C00
1C00
FF80
FF80
FF80
1C00
1C00
1C00
ENDCHAR
STARTCHAR 2022
ENCODING 8226
SWIDTH 375 0
DWIDTH 9 0
BBX 3 3 3 6
BITMAP
E0
E0
E0
ENDCHAR
STARTCHAR 2026
ENCODING 8230
SWIDTH 875 0
DWIDTH 21 0
BBX 15 3 3 0
BITMAP
E38E
E38E
E38E
ENDCHAR
STARTCHAR 2030
ENCODING 8240
SWIDTH 1000 0
DWIDTH 24 0
BBX 18 15 3 0
BITMAP
FC7000
FC7000
FC7000
FC7000
FC7000
FC7000
038000
038000
038000
1C71C0
1C71C0
1C71C0
1C71C0
1C71C0
1C71C0
ENDCHAR
STARTCHAR 2039
ENCODING 8249
SWIDTH 500 0
DWIDTH 12 0
BBX 6 9 3 3
BITMAP
1C
1C
1C
E0
E0
E0
1C
1C
1C
ENDCHAR
STARTCHAR 203A
ENCODING 8250
SWIDTH 500 0
DWIDTH 12 0
BBX 6 9 3 3
BITMAP
E0
E0
E0
1C
1C
1C
E0
E0
E0
ENDCHAR
STARTCHAR 20AC
ENCODING 8364
SWIDTH 875 0
DWIDTH 21 0
BBX 15 15 3 0
BITMAP
03F0
03F0
03F0
1C0E
1C0E
1C0E
FF80
FF80
FF80
1C0E
1C0E
1C0E
03F0
03F0
03F0
ENDCHAR
STARTCHAR 2122
ENCODING 8482
SWIDTH 1250 0
DWIDTH 30 0
BBX 24 9 3 9
BITMAP
FFFE3F
FFFE3F
FFFE3F
1C71C7
1C71C7
1C71C7
1C71C7
1C71C7
1C71C7
ENDCHAR
ENDFONT
